<svg width="18" height="16" viewBox="0 0 18 16" fill="none" xmlns="http://www.w3.org/2000/svg">
<path d="M0.750222 16C0.551323 15.9998 0.360638 15.9206 0.219995 15.78C0.0793518 15.6394 0.000235245 15.4487 0 15.2498L0 0.750222C0.000235245 0.551323 0.0793518 0.360638 0.219995 0.219995C0.360638 0.0793518 0.551323 0.000235245 0.750222 0L9.66667 0L12 2.33333V2.77778H11.9636C10.4944 2.79631 9.09178 3.39292 8.05944 4.43836C7.02711 5.4838 6.44824 6.89388 6.44824 8.36311C6.44824 9.83235 7.02711 11.2424 8.05944 12.2879C9.09178 13.3333 10.4944 13.9299 11.9636 13.9484H12V15.2498C11.9998 15.4487 11.9206 15.6394 11.78 15.78C11.6394 15.9206 11.4487 15.9998 11.2498 16H0.750222ZM1.66667 12.7111V12.9618C1.66761 13.0611 1.70791 13.156 1.77873 13.2257C1.84955 13.2953 1.94511 13.334 2.04444 13.3333H5.51111C5.6106 13.3333 5.70601 13.2938 5.77636 13.2235C5.8467 13.1531 5.88622 13.0577 5.88622 12.9582V12.7111C5.88634 12.6618 5.87672 12.6129 5.85792 12.5673C5.83913 12.5217 5.81151 12.4802 5.77667 12.4453C5.74183 12.4104 5.70043 12.3827 5.65487 12.3637C5.6093 12.3448 5.56045 12.3351 5.51111 12.3351H2.04444C1.99489 12.3348 1.94575 12.3442 1.89987 12.363C1.85399 12.3817 1.81229 12.4094 1.77716 12.4443C1.74203 12.4793 1.71418 12.5209 1.69522 12.5667C1.67625 12.6125 1.66655 12.6616 1.66667 12.7111ZM1.66667 10.7111V10.9609C1.66667 11.0101 1.67637 11.0589 1.69522 11.1044C1.71407 11.1499 1.7417 11.1913 1.77653 11.2261C1.81137 11.261 1.85272 11.2886 1.89823 11.3074C1.94374 11.3263 1.99252 11.336 2.04178 11.336H4.62222C4.67156 11.3361 4.72043 11.3265 4.76604 11.3077C4.81166 11.2889 4.85311 11.2613 4.88804 11.2264C4.92297 11.1916 4.95068 11.1502 4.96958 11.1046C4.98849 11.0591 4.99822 11.0102 4.99822 10.9609V10.7111C4.99822 10.6114 4.95861 10.5158 4.88809 10.4452C4.81758 10.3747 4.72194 10.3351 4.62222 10.3351H2.04444C1.99511 10.3348 1.94619 10.3441 1.90049 10.3627C1.85478 10.3813 1.8132 10.4087 1.7781 10.4434C1.74301 10.4781 1.71511 10.5193 1.69598 10.5648C1.67686 10.6103 1.6669 10.6591 1.66667 10.7084V10.7111ZM1.66667 8.71022V8.96089C1.66702 9.01015 1.67706 9.05886 1.69624 9.10424C1.71541 9.14961 1.74334 9.19077 1.77842 9.22535C1.8135 9.25994 1.85505 9.28728 1.90069 9.3058C1.94634 9.32433 1.99518 9.33368 2.04444 9.33333H4.17778C4.22711 9.33345 4.27599 9.32383 4.3216 9.30504C4.36721 9.28624 4.40867 9.25862 4.4436 9.22378C4.47852 9.18894 4.50623 9.14755 4.52514 9.10198C4.54405 9.05641 4.55378 9.00756 4.55378 8.95822V8.71111C4.55413 8.66155 4.54466 8.61241 4.52591 8.56654C4.50716 8.52066 4.47951 8.47895 4.44454 8.44383C4.40958 8.4087 4.36801 8.38085 4.32222 8.36188C4.27643 8.34292 4.22734 8.33321 4.17778 8.33333H2.04444C1.99474 8.33298 1.94545 8.34251 1.89946 8.36137C1.85346 8.38023 1.81168 8.40804 1.77652 8.44319C1.74137 8.47834 1.71356 8.52013 1.6947 8.56612C1.67584 8.61212 1.66631 8.6614 1.66667 8.71111V8.71022ZM1.47911 4.928V5.384H5.12356V4.928C5.12356 4.32978 3.93689 4.01689 3.30133 4.01689C2.66578 4.01689 1.47911 4.32889 1.47911 4.928ZM2.39022 2.65067C2.39022 2.83091 2.44368 3.00709 2.54383 3.15695C2.64399 3.3068 2.78634 3.42357 2.95287 3.49251C3.11941 3.56144 3.30265 3.57943 3.47941 3.54421C3.65617 3.50898 3.81852 3.42211 3.9459 3.2946C4.07329 3.16709 4.15999 3.00467 4.19505 2.82787C4.2301 2.65107 4.21193 2.46785 4.14284 2.30138C4.07374 2.13491 3.95682 1.99268 3.80687 1.89267C3.65692 1.79267 3.48068 1.73938 3.30044 1.73956C3.05903 1.74003 2.82765 1.8362 2.65703 2.00699C2.4864 2.17778 2.39046 2.40925 2.39022 2.65067ZM15.8124 13.3902L14.5964 12.1778C13.6596 12.7782 12.5339 13.0113 11.4357 12.8323C10.3374 12.6533 9.34399 12.0749 8.64619 11.2082C7.9484 10.3414 7.59542 9.24741 7.65507 8.13627C7.71471 7.02512 8.18277 5.97519 8.96934 5.18811C9.75591 4.40102 10.8055 3.93229 11.9166 3.87192C13.0277 3.81155 14.122 4.16381 14.9892 4.86104C15.8564 5.55828 16.4355 6.55132 16.6151 7.64946C16.7948 8.7476 16.5625 9.87341 15.9627 10.8107L17.176 12.024C17.3572 12.2053 17.4589 12.4511 17.4588 12.7074C17.4587 12.9637 17.3568 13.2095 17.1756 13.3907C16.9943 13.5718 16.7484 13.6736 16.4921 13.6735C16.2358 13.6734 15.9901 13.5715 15.8089 13.3902H15.8124ZM9.88445 6.09778C9.35579 6.62512 9.02639 7.31948 8.9524 8.06251C8.87842 8.80554 9.06442 9.55123 9.47871 10.1725C9.893 10.7937 10.5099 11.252 11.2243 11.4693C11.9387 11.6865 12.7063 11.6493 13.3964 11.3639C14.0864 11.0786 14.6561 10.5627 15.0083 9.9043C15.3605 9.2459 15.4735 8.48571 15.328 7.75333C15.1824 7.02095 14.7874 6.36171 14.2102 5.888C13.633 5.41429 12.9094 5.15543 12.1627 5.15556C11.3085 5.15569 10.4892 5.49453 9.88445 6.09778Z" fill="white"/>
</svg>
