<svg width="20" height="16" viewBox="0 0 20 16" fill="none" xmlns="http://www.w3.org/2000/svg">
<path d="M18 0H2C1.46957 0 0.960859 0.210714 0.585786 0.585786C0.210714 0.960859 0 1.46957 0 2V14C0 14.5304 0.210714 15.0391 0.585786 15.4142C0.960859 15.7893 1.46957 16 2 16H18C18.5304 16 19.0391 15.7893 19.4142 15.4142C19.7893 15.0391 20 14.5304 20 14V2C20 1.46957 19.7893 0.960859 19.4142 0.585786C19.0391 0.210714 18.5304 0 18 0ZM6.4 11L6 9.77H4.06L3.62 11H2L4.2 5H5.82L8 11H6.4ZM14.76 7.5C14.7641 7.6981 14.7281 7.89499 14.6541 8.07882C14.5802 8.26266 14.4699 8.42965 14.3298 8.56976C14.1896 8.70987 14.0227 8.82021 13.8388 8.89414C13.655 8.96808 13.4581 9.00409 13.26 9H11.26V11H9.76V5H13.26C13.4581 4.99591 13.655 5.03192 13.8388 5.10586C14.0227 5.17979 14.1896 5.29013 14.3298 5.43024C14.4699 5.57035 14.5802 5.73734 14.6541 5.92118C14.7281 6.10501 14.7641 6.3019 14.76 6.5V7.5ZM18 11H16.5V5H18V11Z" fill="#177CDA"/>
</svg>
