<svg width="14" height="16" viewBox="0 0 14 16" fill="none" xmlns="http://www.w3.org/2000/svg">
<path d="M2.93578 3.19266C2.85505 3.19266 2.78899 3.25872 2.78899 3.33945V4.22018C2.78899 4.30092 2.85505 4.36697 2.93578 4.36697H9.98165C10.0624 4.36697 10.1284 4.30092 10.1284 4.22018V3.33945C10.1284 3.25872 10.0624 3.19266 9.98165 3.19266H2.93578ZM6.31193 5.83486H2.93578C2.85505 5.83486 2.78899 5.90092 2.78899 5.98165V6.86238C2.78899 6.94312 2.85505 7.00917 2.93578 7.00917H6.31193C6.39266 7.00917 6.45872 6.94312 6.45872 6.86238V5.98165C6.45872 5.90092 6.39266 5.83486 6.31193 5.83486ZM5.43119 14.2385H1.3211V1.3211H11.5963V7.19266C11.5963 7.27339 11.6624 7.33945 11.7431 7.33945H12.7706C12.8514 7.33945 12.9174 7.27339 12.9174 7.19266V0.587156C12.9174 0.262385 12.655 0 12.3303 0H0.587156C0.262385 0 0 0.262385 0 0.587156V14.9725C0 15.2972 0.262385 15.5596 0.587156 15.5596H5.43119C5.51193 15.5596 5.57798 15.4936 5.57798 15.4128V14.3853C5.57798 14.3046 5.51193 14.2385 5.43119 14.2385ZM13.5046 12.6239H10.8624V11.9523C11.7119 11.6991 12.3303 10.9138 12.3303 9.98165C12.3303 8.84587 11.411 7.92661 10.2752 7.92661C9.13945 7.92661 8.22018 8.84587 8.22018 9.98165C8.22018 10.9119 8.83853 11.6991 9.68807 11.9523V12.6239H7.04587C6.8844 12.6239 6.75229 12.756 6.75229 12.9174V15.7064C6.75229 15.8679 6.8844 16 7.04587 16H13.5046C13.6661 16 13.7982 15.8679 13.7982 15.7064V12.9174C13.7982 12.756 13.6661 12.6239 13.5046 12.6239ZM9.3578 9.98165C9.3578 9.47523 9.76881 9.06422 10.2752 9.06422C10.7817 9.06422 11.1927 9.47523 11.1927 9.98165C11.1927 10.4881 10.7817 10.8991 10.2752 10.8991C9.76881 10.8991 9.3578 10.4881 9.3578 9.98165ZM12.6606 14.8624H7.88991V13.7615H12.6606V14.8624Z" fill="#177CDA"/>
</svg>
