<svg width="19" height="16" viewBox="0 0 19 16" fill="none" xmlns="http://www.w3.org/2000/svg">
<path d="M12.8215 14.9577V8.15979L11.361 9.62031C11.1656 9.81493 10.9007 9.92393 10.6249 9.92393C10.3491 9.92393 10.0842 9.81493 9.88879 9.62031C9.69411 9.42553 9.58516 9.16154 9.58516 8.88614C9.58516 8.61075 9.69411 8.34676 9.88879 8.15198L13.0978 4.94293C13.1061 4.93257 13.1154 4.92258 13.1252 4.91364C13.3207 4.71841 13.586 4.60904 13.8623 4.60904C14.1386 4.60904 14.4029 4.71841 14.5984 4.91364L17.8328 8.1471C17.9296 8.24383 18.0069 8.35847 18.0593 8.48489C18.1117 8.61131 18.1384 8.74637 18.1384 8.88321C18.1384 9.02006 18.1117 9.15609 18.0593 9.28252C18.0069 9.40894 17.9296 9.52357 17.8328 9.62031C17.6377 9.81511 17.3734 9.92491 17.0977 9.92491C16.822 9.92491 16.5577 9.81511 16.3625 9.62031L14.904 8.16467V14.9577C14.9032 15.2337 14.7929 15.4979 14.5974 15.6928C14.402 15.8877 14.1373 15.9974 13.8613 15.9974C13.5855 15.9974 13.3211 15.8878 13.1261 15.6928C12.9312 15.4978 12.8215 15.2334 12.8215 14.9577ZM0 14.3982V10.6932C0.0319909 11.1141 0.768024 11.5083 2.07265 11.8052C3.67096 12.1303 5.29876 12.2841 6.92967 12.2641C8.73273 12.2969 10.533 12.1004 12.2865 11.6793V15.4116C10.5331 15.833 8.73274 16.0295 6.92967 15.9964C3.10976 15.9974 0 15.282 0 14.3982ZM0 10.1329V6.42884C0.0319909 6.85172 0.768024 7.24396 2.07265 7.53887C3.67087 7.86473 5.29868 8.01916 6.92967 7.99968C7.70545 7.99968 8.46879 7.97279 9.19758 7.91181C8.963 8.23192 8.85086 8.62525 8.88224 9.02087C8.91362 9.41649 9.08632 9.78832 9.36843 10.0674C9.52289 10.2227 9.70601 10.3457 9.90831 10.4297C10.1106 10.5136 10.3278 10.556 10.5468 10.5556C10.766 10.5563 10.9838 10.5136 11.1863 10.4297C11.3888 10.3457 11.5727 10.223 11.7271 10.0674L12.2885 9.53928V11.1482C10.5346 11.5667 8.73448 11.7622 6.93162 11.7301C3.10971 11.7311 0 11.0146 0 10.1329ZM0 5.8665V2.16149C0.0319909 2.58237 0.768024 2.97752 2.07265 3.27544C3.67121 3.59871 5.29886 3.75219 6.92967 3.73331C10.7526 3.73331 13.8642 3.01493 13.8642 2.13318V3.69329C13.5037 3.74281 13.1692 3.90891 12.9123 4.16678L9.75113 7.32702C8.8141 7.4221 7.87248 7.46815 6.93065 7.46565C3.10973 7.46665 0 6.74824 0 5.8665ZM0 1.59915C0 0.717405 3.10973 0 6.93065 0C10.7516 0 13.8652 0.717405 13.8652 1.59915C13.8652 2.4809 10.7546 3.19929 6.93065 3.19929C3.10673 3.19929 0 2.48486 0 1.60111V1.59915Z" fill="#177CDA"/>
</svg>
