<svg width="17" height="16" viewBox="0 0 17 16" fill="none" xmlns="http://www.w3.org/2000/svg">
<path d="M9.76207 0C11.1943 0 12.4319 0.26384 13.4747 0.791519C14.5175 1.3192 15.309 2.06046 15.8492 3.01531C16.402 3.9576 16.6784 5.05693 16.6784 6.31331C16.6784 7.31841 16.5026 8.27954 16.1508 9.1967C15.8115 10.1139 15.3153 10.8614 14.662 11.4393C14.0212 12.0173 13.2611 12.3062 12.3816 12.3062C11.7409 12.3062 11.2383 12.168 10.874 11.8916C10.5096 11.6027 10.2835 11.2006 10.1955 10.6855C9.80605 11.1881 9.31606 11.5838 8.72556 11.8728C8.13506 12.1618 7.51944 12.3062 6.87868 12.3062C5.91127 12.3062 5.15116 12.0173 4.59835 11.4393C4.05811 10.8488 3.78799 10.051 3.78799 9.04594C3.78799 8.09109 3.98272 7.19906 4.3722 6.36985C4.77424 5.54064 5.33333 4.88104 6.04947 4.39105C6.76561 3.8885 7.56969 3.63722 8.46172 3.63722C9.55477 3.63722 10.3212 4.00785 10.7609 4.74912L10.9305 3.80683H12.7962L11.8539 9.1967C11.8163 9.46054 11.7974 9.69297 11.7974 9.89399C11.7974 10.2207 11.8602 10.4656 11.9859 10.629C12.1241 10.7923 12.3628 10.874 12.702 10.874C13.1794 10.874 13.5878 10.6415 13.927 10.1767C14.2662 9.69925 14.5175 9.11504 14.6808 8.42403C14.8567 7.73302 14.9446 7.06086 14.9446 6.40754C14.9446 4.81194 14.4798 3.59325 13.5501 2.75147C12.6203 1.9097 11.2697 1.48881 9.49823 1.48881C8.0157 1.48881 6.68394 1.8406 5.50294 2.54417C4.33451 3.24774 3.41735 4.21516 2.75147 5.44641C2.08559 6.67766 1.75265 8.04711 1.75265 9.55477C1.75265 11.1629 2.23007 12.3879 3.18492 13.2297C4.13977 14.0715 5.50294 14.4923 7.27444 14.4923C8.468 14.4923 9.5108 14.2725 10.4028 13.8327L10.6855 15.265C9.54221 15.755 8.2607 16 6.84099 16C5.47154 16 4.27169 15.7424 3.24146 15.2273C2.21123 14.7122 1.41343 13.9772 0.848057 13.0224C0.282686 12.0801 0 10.9808 0 9.72438C0 7.92776 0.414605 6.28818 1.24382 4.80565C2.08559 3.32313 3.24774 2.15469 4.73027 1.30035C6.2128 0.433451 7.89007 0 9.76207 0ZM7.53828 10.6478C8.06596 10.6478 8.54338 10.4971 8.97055 10.1955C9.41029 9.88143 9.75579 9.47311 10.0071 8.97055C10.2583 8.45544 10.384 7.90891 10.384 7.33098C10.384 6.72792 10.2144 6.23793 9.87515 5.86101C9.54849 5.47154 9.08363 5.2768 8.48057 5.2768C7.94032 5.2768 7.4629 5.44641 7.04829 5.78563C6.64625 6.11229 6.33216 6.53946 6.10601 7.06714C5.89242 7.59482 5.78563 8.14762 5.78563 8.72556C5.78563 9.31606 5.93011 9.7872 6.21908 10.139C6.50805 10.4782 6.94778 10.6478 7.53828 10.6478Z" fill="#177CDA"/>
</svg>
