<svg width="14" height="14" viewBox="0 0 14 14" fill="none" xmlns="http://www.w3.org/2000/svg">
<path d="M11.5818 13.3947L9.87214 11.6897C8.55491 12.534 6.97226 12.8618 5.42812 12.6102C3.88398 12.3585 2.48724 11.5451 1.50615 10.3262C0.525057 9.10727 0.028784 7.56879 0.112643 6.00622C0.196503 4.44364 0.854582 2.96714 1.96049 1.86028C3.0664 0.753419 4.54217 0.0942455 6.10437 0.00935248C7.66657 -0.0755406 9.20505 0.419833 10.4243 1.40034C11.6436 2.38084 12.4578 3.77734 12.7104 5.32163C12.963 6.86592 12.6363 8.44912 11.793 9.76717L13.499 11.4735C13.7537 11.7284 13.8967 12.0741 13.8966 12.4345C13.8965 12.795 13.7532 13.1406 13.4983 13.3954C13.2435 13.6502 12.8978 13.7932 12.5375 13.7931C12.1771 13.793 11.8316 13.6497 11.5768 13.3947H11.5818ZM3.24712 3.13953C2.50384 3.88112 2.04071 4.85759 1.93668 5.9025C1.83266 6.9474 2.09418 7.99605 2.67667 8.86967C3.25915 9.7433 4.12654 10.3878 5.13097 10.6934C6.1354 10.9989 7.21469 10.9466 8.18485 10.5452C9.155 10.1439 9.95597 9.41847 10.4512 8.49257C10.9464 7.56667 11.1053 6.49764 10.9007 5.4677C10.6961 4.43777 10.1406 3.5107 9.32909 2.84453C8.51755 2.17836 7.50013 1.81433 6.45028 1.8145C5.2493 1.8147 4.0974 2.2912 3.24712 3.13953Z" fill="#177CDA"/>
</svg>
