<svg width="17" height="16" viewBox="0 0 17 16" fill="none" xmlns="http://www.w3.org/2000/svg">
<path d="M5.34012 0L3.56008 1.78004L1.78004 3.56008L3.56008 5.34012L5.34012 7.12016L5.96313 6.49714L6.58614 5.87413L5.42912 4.7171L4.27209 3.56008L5.42912 2.40305L6.58614 1.24603L5.96313 0.623014L5.34012 0ZM10.6802 0L10.0572 0.623014L9.43421 1.24603L10.5912 2.40305L11.7483 3.56008L10.5912 4.7171L9.43421 5.87413L10.0572 6.49714L10.6802 7.12016L12.4603 5.34012L14.2403 3.56008L12.4603 1.78004L10.6802 0ZM15.9999 13.4304L15.7785 12.7308C15.7564 12.6439 15.7169 12.5624 15.6625 12.4911C15.608 12.4198 15.5397 12.3603 15.4617 12.3161C15.3832 12.2712 15.2966 12.2425 15.2069 12.2315C15.1172 12.2204 15.0262 12.2274 14.9392 12.252L10.7639 12.7308L8.01018 11.5703C8.01018 11.5703 11.2567 10.8898 11.4946 10.6776C11.7325 10.4654 11.9672 10.4204 11.9912 9.88278C12.0153 9.34521 11.718 8.9002 11.718 8.9002L4.4501 9.79022C4.4501 9.79022 3.56008 9.79022 1.78004 9.79022C0 9.79022 0 11.5703 0 11.5703V13.3503C0 13.3503 0 14.2403 0.44501 14.6853C0.89002 15.1303 1.78004 15.1303 1.78004 15.1303H4.4501L8.41514 15.9883C8.63069 16.0079 8.84778 16.0028 9.06218 15.9732L15.5237 14.2341C15.6932 14.1887 15.8382 14.0788 15.9278 13.9279C15.972 13.8537 16.0011 13.7714 16.0135 13.6859C16.0259 13.6004 16.0212 13.5141 15.9999 13.4304Z" fill="#177CDA"/>
</svg>
