<svg width="20" height="16" viewBox="0 0 20 16" fill="none" xmlns="http://www.w3.org/2000/svg">
<path d="M8.38317 14.7335C8.09536 15.126 7.75709 15.479 7.37708 15.7831C7.18428 15.8954 6.96113 15.9444 6.73904 15.9232C6.51695 15.902 6.3071 15.8117 6.13902 15.6649C5.97493 15.538 5.85477 15.3628 5.79546 15.164C5.73615 14.9651 5.74068 14.7527 5.8084 14.5566C5.5932 14.6271 5.361 14.6262 5.14639 14.5539C4.93178 14.4817 4.74625 14.342 4.61745 14.1558C4.48167 14.0262 4.39202 13.8557 4.36218 13.6703C4.33233 13.485 4.36392 13.295 4.45214 13.1293C4.24437 13.2206 4.01209 13.24 3.79205 13.1844C3.57201 13.1289 3.37676 13.0016 3.23719 12.8226C3.11414 12.6796 3.038 12.5022 3.01909 12.3145C3.00017 12.1267 3.03939 11.9377 3.13143 11.773C2.92656 11.8648 2.69636 11.8832 2.47949 11.8253C2.26261 11.7673 2.07229 11.6365 1.94048 11.4548C1.78349 11.3099 1.68785 11.1104 1.67314 10.8973C1.65844 10.6841 1.72578 10.4734 1.86138 10.3083C2.18598 9.92733 2.5383 9.57085 2.91546 9.2418C2.91546 9.2418 0.0669509 6.52483 0.00740336 6.30352C-0.0521442 6.08222 0.261591 5.84225 0.444678 5.9258C0.627764 6.00934 3.39628 8.80897 3.45316 8.75475C3.52895 8.68938 3.61691 8.63965 3.71199 8.60841C3.80707 8.57717 3.90739 8.56504 4.00717 8.57272C4.10696 8.5804 4.20424 8.60774 4.29342 8.65317C4.3826 8.69859 4.46191 8.76121 4.5268 8.83741C4.84498 9.22669 5.23781 9.47376 4.85742 9.9697C5.07919 9.8916 5.32048 9.88853 5.54417 9.96095C5.76786 10.0334 5.96156 10.1773 6.09547 10.3705C6.16231 10.4243 6.21761 10.4911 6.25807 10.5667C6.29853 10.6424 6.32332 10.7254 6.33095 10.8109C6.33859 10.8963 6.32891 10.9824 6.3025 11.0641C6.27609 11.1457 6.23349 11.2212 6.17724 11.286C6.63762 11.062 7.19133 11.5526 7.45085 11.8406C7.53974 11.9655 7.59871 12.1091 7.62321 12.2605C7.64772 12.4118 7.63709 12.5668 7.59216 12.7133C8.08721 12.5249 8.50049 12.9373 8.73601 13.1257C8.87637 13.2703 8.96603 13.4564 8.99151 13.6563C9.01699 13.8562 8.97692 14.0589 8.87732 14.234C9.25505 14.6464 9.89141 15.3308 10.1509 15.2952C10.4104 15.2597 10.8824 14.7175 10.7526 14.3984C10.0738 13.6131 9.34494 12.8724 8.5707 12.181C8.29962 11.9099 8.66491 11.4619 8.93598 11.7215C9.20706 11.981 10.9055 13.691 11.1766 13.8918C11.4476 14.0927 12.2911 13.3888 11.9676 12.9977C11.6441 12.6067 10.0683 10.9322 9.87897 10.7198C9.68966 10.5074 10.0318 10.1066 10.3234 10.3643C10.6149 10.6221 12.0636 12.1347 12.3675 12.4085C12.6715 12.6822 13.7336 12.1161 13.2385 11.4557C12.7435 10.7954 11.4512 9.67818 11.1686 9.352C10.8859 9.02583 11.4041 8.7032 11.613 8.98672C11.8218 9.27024 13.6411 10.9562 13.9478 11.2273C14.2544 11.4984 15.1156 10.6852 14.809 10.2843C14.5023 9.88349 10.2327 5.70805 9.56523 5.04058C8.89777 4.37312 8.0321 5.15879 7.83124 5.57384C7.63038 5.9889 7.57172 7.04831 7.04113 7.39049C6.51053 7.73267 5.06006 8.07395 4.90808 6.71769C4.7561 5.36143 5.99327 4.38289 6.22879 3.42924C6.46431 2.47559 7.0269 0.829593 9.14929 1.44284C11.2717 2.0561 12.6626 2.24274 13.0225 2.49604C13.3825 2.74934 16.5981 6.04223 16.8318 6.30886C17.0656 6.57549 16.8318 6.69725 16.5465 7.03409C16.2612 7.37094 14.5255 9.05515 14.5255 9.05515C14.5255 9.05515 14.8925 9.47821 15.3173 10.0675C15.7422 10.6567 15.0818 11.3055 14.9618 11.4006C14.8419 11.4957 14.537 12.0228 14.0064 11.7783C14.0659 11.9718 14.06 12.1794 13.9896 12.3691C13.9192 12.5588 13.7883 12.7201 13.6171 12.828C13.3932 13.0164 12.9568 13.3941 12.5559 13.1346C12.6578 13.3157 12.6909 13.5275 12.6493 13.731C12.6076 13.9346 12.494 14.1163 12.3293 14.2429C12.0076 14.5877 11.7498 14.7566 11.2699 14.514C11.6378 15.2525 10.5855 15.9644 10.1963 16H10.1767C9.77143 15.9964 8.60358 14.9424 8.38317 14.7335ZM17.7641 5.83781C17.4273 5.50097 14.2917 2.39205 13.8775 1.95122C13.4634 1.51039 13.7736 1.19932 14.3699 0.603846C14.9663 0.00837049 15.3031 -0.196046 15.64 0.215454C15.9768 0.626954 18.8786 3.42836 19.3195 3.86919C19.7603 4.31001 19.8119 4.62108 19.579 4.87972C19.2974 5.2182 18.9943 5.53823 18.6716 5.83781C18.545 5.96502 18.3782 6.0442 18.1996 6.06178C18.1157 6.05585 18.0338 6.03294 17.9589 5.99445C17.8841 5.95595 17.8178 5.90266 17.7641 5.83781Z" fill="#177CDA"/>
</svg>
