<svg width="14" height="16" viewBox="0 0 14 16" fill="none" xmlns="http://www.w3.org/2000/svg">
<path d="M6.93333 16L6.8064 15.9691C4.90013 15.4568 3.20921 14.3449 1.98352 12.7977C0.757829 11.2505 0.0624003 9.34997 0 7.37707V2.87787L6.93333 0L13.8667 2.87787V7.37707C13.8043 9.34997 13.1088 11.2505 11.8831 12.7977C10.6575 14.3449 8.96654 15.4568 7.06027 15.9691L6.93333 16ZM2.13333 4.12267V7.48267C2.16664 8.91158 2.64789 10.294 3.50914 11.4346C4.3704 12.5753 5.56815 13.4167 6.93333 13.84C8.29852 13.4167 9.49627 12.5753 10.3575 11.4346C11.2188 10.294 11.7 8.91158 11.7333 7.48267V4.12267L6.93333 2.21013L2.13333 4.12267Z" fill="#177CDA"/>
</svg>
