<svg width="18" height="16" viewBox="0 0 18 16" fill="none" xmlns="http://www.w3.org/2000/svg">
<path d="M15.6197 16H1.46448C1.21066 16.0006 0.961846 15.9348 0.741325 15.8091C0.520803 15.6834 0.336691 15.5022 0.207883 15.2835C0.0768394 15.0652 0.00552151 14.816 0.000309586 14.5615C-0.00490234 14.3069 0.0557532 14.0551 0.177751 13.8316L7.25422 0.767859C7.37862 0.533971 7.56444 0.338576 7.79213 0.20317C8.01982 0.0677648 8.28052 -0.00231735 8.54542 6.07228e-05C8.81018 -0.00236195 9.07008 0.0677489 9.29759 0.20317C9.52511 0.338592 9.71139 0.533979 9.8355 0.767859L16.9109 13.8316C17.0336 14.0546 17.0955 14.3058 17.0905 14.5603C17.0855 14.8149 17.0133 15.0644 16.8818 15.2824C16.753 15.5024 16.569 15.6843 16.3473 15.8102C16.1256 15.9362 15.8746 16.0018 15.6197 16ZM8.5231 11.2693C8.26001 11.2696 8.00728 11.3746 7.82114 11.5606C7.63501 11.7465 7.53048 11.9983 7.52987 12.2614C7.53017 12.5248 7.63501 12.7781 7.82114 12.9645C8.00728 13.1508 8.25971 13.2551 8.5231 13.2557C8.78669 13.2554 9.03867 13.1509 9.22505 12.9645C9.41144 12.7781 9.51602 12.525 9.51633 12.2614C9.51542 11.9983 9.41029 11.7463 9.22394 11.5606C9.03759 11.3749 8.78619 11.2704 8.5231 11.2704V11.2693ZM8.54095 5.46505C8.37783 5.4652 8.2162 5.49734 8.06555 5.55991C7.91489 5.62247 7.77792 5.7134 7.66267 5.82886C7.54743 5.94431 7.45601 6.08208 7.39372 6.23285C7.33143 6.38361 7.29983 6.54513 7.29998 6.70826C7.58904 7.80029 8.00514 8.85468 8.53984 9.84976C9.07246 8.85332 9.48948 7.79931 9.78305 6.70826C9.7832 6.54503 9.75166 6.38257 9.68931 6.23173C9.62695 6.08089 9.5346 5.94433 9.41924 5.82886C9.30387 5.71339 9.16715 5.62129 9.01637 5.55879C8.86558 5.49629 8.70418 5.46505 8.54095 5.46505Z" fill="#177CDA"/>
</svg>
