<svg width="16" height="16" viewBox="0 0 16 16" fill="none" xmlns="http://www.w3.org/2000/svg">
<path d="M9.27158 14.8442C8.9042 14.4799 8.61282 14.0466 8.41453 13.5688C8.21624 13.0909 8.11495 12.5781 8.11648 12.0607C8.11483 11.5439 8.21622 11.0318 8.41453 10.5544C8.61284 10.0771 8.90415 9.64422 9.27158 9.28069C9.63561 8.91318 10.0691 8.62173 10.5468 8.42342C11.0246 8.22512 11.5372 8.12497 12.0544 8.12668C12.5717 8.12497 13.0841 8.22512 13.5618 8.42342C14.0396 8.62173 14.4731 8.91318 14.8371 9.28069C15.204 9.64458 15.4952 10.0789 15.6935 10.5562C15.8918 11.0334 15.9932 11.5439 15.9922 12.0607C15.9931 12.578 15.8915 13.091 15.6933 13.5688C15.495 14.0466 15.204 14.4796 14.8371 14.8442C14.4727 15.2113 14.0391 15.5032 13.5614 15.7015C13.0837 15.8998 12.5716 16.0011 12.0544 16C11.5373 16.0011 11.025 15.8998 10.5473 15.7015C10.0696 15.5032 9.63596 15.2113 9.27158 14.8442ZM10.2605 11.5367L9.78872 12.0069C9.77447 12.0212 9.76455 12.0393 9.7603 12.059C9.75604 12.0787 9.75754 12.0991 9.76464 12.118C9.76919 12.1321 9.77757 12.1447 9.78872 12.1544L10.7846 13.154L11.2288 13.5983C11.2748 13.6487 11.3345 13.6849 11.4004 13.7024H11.4076C11.4643 13.6943 11.5156 13.6645 11.5505 13.6191L12.0169 13.154L14.0846 11.0681C14.0937 11.0571 14.1011 11.0448 14.1067 11.0317C14.1135 11.0132 14.115 10.9937 14.1111 10.9744C14.1071 10.9551 14.098 10.9367 14.0846 10.9223L13.6128 10.4503C13.5917 10.4331 13.5654 10.4232 13.5382 10.4226C13.5261 10.4208 13.5138 10.4208 13.5017 10.4226C13.4889 10.4295 13.4767 10.4378 13.4653 10.4468L11.4004 12.5327L10.4017 11.5332C10.3918 11.5223 10.3792 11.5137 10.3653 11.5089C10.3535 11.5048 10.3413 11.5026 10.3288 11.5019C10.3157 11.5027 10.3029 11.5064 10.2911 11.5124C10.2793 11.5183 10.2689 11.5264 10.2605 11.5367ZM2.08633 14.6707C1.36346 14.3477 0.665935 13.971 0 13.5427V11.0022C0 9.7476 1.37805 8.9306 2.53666 8.46681C3.88716 7.94342 5.31801 7.6574 6.76594 7.62169C7.61717 7.63665 8.46432 7.74336 9.29284 7.93926C8.77328 8.30843 8.33258 8.7773 7.99653 9.31887C7.58915 9.25786 7.17786 9.22626 6.76594 9.22516C4.25148 9.22516 1.60564 10.4593 1.60564 11.0022V12.498C3.12557 13.522 4.88673 14.1312 6.71453 14.2646C7.09654 14.2626 7.47691 14.2159 7.84815 14.1258C8.13259 14.6524 8.51317 15.1208 8.97028 15.5071C8.23261 15.6941 7.47547 15.7926 6.71453 15.8004C5.11101 15.7414 3.53641 15.3561 2.0872 14.6672L2.08633 14.6707ZM3.38264 3.38742C3.38335 2.4902 3.73966 1.62912 4.37375 0.99436C5.00784 0.3596 5.86786 0.00164642 6.76507 0C7.66275 0.000941176 8.52346 0.359524 9.15813 0.99436C9.7928 1.6292 10.1496 2.48974 10.1503 3.38742C10.1489 4.28471 9.79183 5.14434 9.15726 5.77874C8.5227 6.41314 7.66237 6.77019 6.76507 6.77136C5.86909 6.76949 5.01029 6.41213 4.37657 5.77874C3.74285 5.14535 3.38586 4.28687 3.38351 3.39089L3.38264 3.38742ZM4.99067 3.38742C4.99067 3.85871 5.17802 4.31056 5.51128 4.64382C5.84453 4.97707 6.29638 5.16442 6.76768 5.16442C7.23897 5.16442 7.69104 4.97707 8.02429 4.64382C8.35754 4.31056 8.54468 3.85871 8.54468 3.38742C8.54468 2.91613 8.35754 2.46427 8.02429 2.13102C7.69104 1.79777 7.23897 1.61041 6.76768 1.61041C6.53402 1.61053 6.30277 1.65614 6.08698 1.74577C5.8712 1.8354 5.67517 1.96728 5.51019 2.13275C5.34522 2.29822 5.21458 2.49458 5.12559 2.71063C5.03661 2.92668 4.99095 3.15723 4.99154 3.39089L4.99067 3.38742Z" fill="#177CDA"/>
</svg>
