<svg width="16" height="10" viewBox="0 0 16 10" fill="none" xmlns="http://www.w3.org/2000/svg">
<path d="M7.37831 9.45171L0.257442 2.33083C0.0926016 2.16593 -1.92965e-07 1.94231 -1.698e-07 1.70915C-1.46636e-07 1.47599 0.0926017 1.25237 0.257442 1.08746L1.08747 0.256774C1.25231 0.0923402 1.47565 -2.87347e-06 1.70848 -2.85034e-06C1.94132 -2.82721e-06 2.16465 0.0923403 2.3295 0.256774L7.99633 5.90027L13.6632 0.256775C13.828 0.0923414 14.0513 -1.62411e-06 14.2842 -1.60097e-06C14.517 -1.57784e-06 14.7404 0.0923415 14.9052 0.256775L15.7426 1.0868C15.9074 1.2517 16 1.47532 16 1.70848C16 1.94165 15.9074 2.16527 15.7426 2.33017L8.62168 9.45171C8.45678 9.61655 8.23316 9.70915 8 9.70915C7.76684 9.70915 7.54322 9.61655 7.37831 9.45171Z" fill="#5F6368"/>
</svg>
