<svg width="41" height="27" viewBox="0 0 41 27" fill="none" xmlns="http://www.w3.org/2000/svg">
<path d="M27 0H13.5C9.91958 5.33525e-08 6.4858 1.42232 3.95406 3.95406C1.42232 6.4858 0 9.91958 0 13.5C0 17.0804 1.42232 20.5142 3.95406 23.0459C6.4858 25.5777 9.91958 27 13.5 27H27C30.5804 27 34.0142 25.5777 36.5459 23.0459C39.0777 20.5142 40.5 17.0804 40.5 13.5C40.5 9.91958 39.0777 6.4858 36.5459 3.95406C34.0142 1.42232 30.5804 5.33525e-08 27 0ZM27 22.5C25.22 22.5 23.4799 21.9722 21.9999 20.9832C20.5198 19.9943 19.3663 18.5887 18.6851 16.9442C18.0039 15.2996 17.8257 13.49 18.1729 11.7442C18.5202 9.99836 19.3774 8.39471 20.636 7.13604C21.8947 5.87737 23.4984 5.0202 25.2442 4.67293C26.99 4.32567 28.7996 4.5039 30.4442 5.18508C32.0887 5.86627 33.4943 7.01982 34.4832 8.49987C35.4722 9.97991 36 11.72 36 13.5C36.0007 14.6821 35.7683 15.8527 35.3163 16.9449C34.8642 18.0372 34.2013 19.0296 33.3654 19.8654C32.5296 20.7013 31.5372 21.3642 30.4449 21.8163C29.3527 22.2683 28.1821 22.5007 27 22.5Z" fill="#85868F"/>
</svg>
