<svg width="10" height="16" viewBox="0 0 10 16" fill="none" xmlns="http://www.w3.org/2000/svg">
<path d="M9.45171 8.62168L2.33084 15.7426C2.16593 15.9074 1.94231 16 1.70915 16C1.47599 16 1.25237 15.9074 1.08747 15.7426L0.256776 14.9125C0.0923422 14.7477 -8.08081e-07 14.5244 -7.95127e-07 14.2915C-7.82172e-07 14.0587 0.0923423 13.8353 0.256776 13.6705L5.90027 8.00367L0.256777 2.33684C0.0923429 2.17199 -1.08416e-07 1.94866 -9.54617e-08 1.71582C-8.25075e-08 1.48298 0.092343 1.25965 0.256777 1.0948L1.0868 0.257442C1.2517 0.0926015 1.47532 8.20814e-08 1.70849 9.50537e-08C1.94165 1.08026e-07 2.16527 0.0926016 2.33017 0.257442L9.45171 7.37832C9.61655 7.54322 9.70915 7.76684 9.70915 8C9.70915 8.23316 9.61655 8.45678 9.45171 8.62168Z" fill="#5F6368"/>
</svg>
