<svg width="16" height="10" viewBox="0 0 16 10" fill="none" xmlns="http://www.w3.org/2000/svg">
<path d="M8.62168 0.54829L15.7426 7.66916C15.9074 7.83407 16 8.05768 16 8.29085C16 8.52401 15.9074 8.74763 15.7426 8.91253L14.9125 9.74322C14.7477 9.90766 14.5244 10 14.2915 10C14.0587 10 13.8353 9.90766 13.6705 9.74322L8.00367 4.09973L2.33684 9.74322C2.17199 9.90766 1.94866 10 1.71582 10C1.48298 10 1.25965 9.90766 1.0948 9.74322L0.257442 8.9132C0.0926014 8.7483 1.7593e-08 8.52468 2.03735e-08 8.29151C2.31539e-08 8.05835 0.0926015 7.83473 0.257442 7.66983L7.37832 0.54829C7.54322 0.38345 7.76684 0.290848 8 0.290848C8.23316 0.290848 8.45678 0.38345 8.62168 0.54829Z" fill="#177CDA"/>
</svg>
